<svg width="160" height="38" viewBox="0 0 160 38" fill="none" xmlns="http://www.w3.org/2000/svg">
  <path d="M18.1166 9.3428C18.1166 14.3456 14.0611 18.4011 9.05831 18.4011C4.05554 18.4011 0 14.3456 0 9.3428C0 4.34003 4.05554 0.284485 9.05831 0.284485C14.0611 0.284485 18.1166 4.34003 18.1166 9.3428Z" fill="#605DFF"/>
  <path d="M19.3144 9.3428C19.3144 4.34004 23.37 0.284485 28.3727 0.284485C33.3755 0.284485 37.431 4.34003 37.431 9.3428C37.431 14.3456 33.3755 18.4011 28.3727 18.4011H19.3144V9.3428Z" fill="#605DFF"/>
  <path d="M0 28.6572C0 23.6545 4.05554 19.5989 9.05831 19.5989H18.1166V28.6572C18.1166 33.66 14.0611 37.7155 9.05831 37.7155C4.05555 37.7155 0 33.66 0 28.6572Z" fill="#605DFF"/>
  <path d="M37.431 28.6572C37.431 33.66 33.3755 37.7155 28.3727 37.7155C23.37 37.7155 19.3144 33.66 19.3144 28.6572C19.3144 23.6544 23.37 19.5989 28.3727 19.5989C33.3755 19.5989 37.431 23.6544 37.431 28.6572Z" fill="#605DFF"/>
  <text x="42" y="26" font-family="Arial" font-size="16" font-weight="bold" fill="#23272E">APERTUS</text>
</svg>
