<svg width="142" height="39" viewBox="0 0 142 39" fill="none" xmlns="http://www.w3.org/2000/svg">
  <path d="M18.1166 9.8428C18.1166 14.8456 14.0611 18.9011 9.05831 18.9011C4.05554 18.9011 0 14.8456 0 9.8428C0 4.84003 4.05554 0.784485 9.05831 0.784485C14.0611 0.784485 18.1166 4.84003 18.1166 9.8428Z" fill="#605DFF"/>
  <path d="M19.3144 9.8428C19.3144 4.84004 23.37 0.784485 28.3727 0.784485C33.3755 0.784485 37.431 4.84003 37.431 9.8428C37.431 14.8456 33.3755 18.9011 28.3727 18.9011H19.3144V9.8428Z" fill="#605DFF"/>
  <path d="M0 29.1572C0 24.1545 4.05554 20.0989 9.05831 20.0989H18.1166V29.1572C18.1166 34.16 14.0611 38.2155 9.05831 38.2155C4.05555 38.2155 0 34.16 0 29.1572Z" fill="#605DFF"/>
  <path d="M37.431 29.1572C37.431 34.16 33.3755 38.2155 28.3727 38.2155C23.37 38.2155 19.3144 34.16 19.3144 29.1572C19.3144 24.1544 23.37 20.0989 28.3727 20.0989C33.3755 20.0989 37.431 24.1544 37.431 29.1572Z" fill="#605DFF"/>
  <text x="50" y="30" font-family="Arial" font-size="18" fill="white" font-weight="bold">PGAP</text>
</svg>
